<?xml version="1.0" encoding="UTF-8" standalone="no"?>
<!-- Created with Inkscape (http://www.inkscape.org/) -->

<svg
   width="512"
   height="512"
   viewBox="0 0 512 512"
   version="1.1"
   id="svg5"
   inkscape:version="1.2.2 (b0a8486541, 2022-12-01, custom)"
   sodipodi:docname="tekbird-logo.svg"
   xmlns:inkscape="http://www.inkscape.org/namespaces/inkscape"
   xmlns:sodipodi="http://sodipodi.sourceforge.net/DTD/sodipodi-0.dtd"
   xmlns:xlink="http://www.w3.org/1999/xlink"
   xmlns="http://www.w3.org/2000/svg"
   xmlns:svg="http://www.w3.org/2000/svg">
  <sodipodi:namedview
     id="namedview7"
     pagecolor="#ffffff"
     bordercolor="#000000"
     borderopacity="0.25"
     inkscape:showpageshadow="2"
     inkscape:pageopacity="0.0"
     inkscape:pagecheckerboard="0"
     inkscape:deskcolor="#d1d1d1"
     inkscape:document-units="px"
     showgrid="false"
     inkscape:lockguides="true"
     inkscape:zoom="0.5"
     inkscape:cx="130"
     inkscape:cy="135"
     inkscape:window-width="1366"
     inkscape:window-height="636"
     inkscape:window-x="0"
     inkscape:window-y="27"
     inkscape:window-maximized="1"
     inkscape:current-layer="layer1" />
  <defs
     id="defs2">
    <linearGradient
       inkscape:collect="always"
       id="linearGradient777">
      <stop
         style="stop-color:#3b39d4;stop-opacity:1;"
         offset="0"
         id="stop773" />
      <stop
         style="stop-color:#c81bff;stop-opacity:0.99131691;"
         offset="1"
         id="stop775" />
    </linearGradient>
    <linearGradient
       inkscape:collect="always"
       xlink:href="#linearGradient777"
       id="linearGradient779"
       x1="210.85582"
       y1="129.30486"
       x2="313.42557"
       y2="131.63158"
       gradientUnits="userSpaceOnUse" />
  </defs>
  <g
     inkscape:label="Layer 1"
     inkscape:groupmode="layer"
     id="layer1">
    <path
       id="path559"
       style="font-size:144px;font-family:Roboto;-inkscape-font-specification:Roboto;display:inline;fill:url(#linearGradient779);stroke-width:0;stroke-linecap:round;stroke-linejoin:round;fill-opacity:1"
       d="m 242.59961,78.753906 v 0 l -32.83594,0.08594 v 11.109375 h 32.83594 c 0,30.421859 0.0168,60.898449 0.0168,91.320319 l 13.41293,-0.0547 v -0.0859 h 22.07812 c 10.87499,0 19.28907,-2.62501 25.24219,-7.875 5.95311,-5.25 8.92969,-12.46876 8.92969,-21.65625 0,-6 -1.6172,-11.15626 -4.85157,-15.46875 -3.18749,-4.35937 -7.54688,-7.3125 -13.07812,-8.85938 4.68749,-2.01562 8.39063,-4.85156 11.10937,-8.50781 2.71875,-3.70312 4.07813,-7.94532 4.07813,-12.72656 0,-8.999993 -2.81251,-15.796881 -8.4375,-20.390627 -5.57812,-4.593745 -13.92189,-6.890625 -25.03125,-6.890625 z m 27.10351,11.109375 h 6.36524 c 6.70311,0 11.69531,1.289066 14.97656,3.867188 3.28125,2.531247 4.92188,6.609381 4.92188,12.234371 0,5.0625 -1.78126,9.07032 -5.34375,12.02344 -3.51562,2.95312 -8.22657,4.42969 -14.13282,4.42969 H 256.09961 V 89.949219 Z m -13.60351,43.382809 h 22.5 c 13.40623,0 20.10937,6.16408 20.10937,18.49219 0,5.71875 -1.82813,10.21876 -5.48437,13.5 -3.60938,3.23438 -8.5547,4.85156 -14.83594,4.85156 h -22.28906 z"
       sodipodi:nodetypes="ccccccccssscccscsccscscscccccsscsc"
       transform="matrix(4.9943604,0,0,4.9943604,-1047.6354,-393.32539)"
       inkscape:label="logo" />
  </g>
</svg>
